<svg width="254" height="202" viewBox="0 0 254 202" fill="none" xmlns="http://www.w3.org/2000/svg">
    <path
        d="M121.69 200.165L0.878241 4.04898C0.0573831 2.71647 1.01602 1 2.58107 1H78.9921C79.7301 1 80.4081 1.40643 80.756 2.05731L85.2461 10.4589C85.9581 11.7912 84.9928 13.4016 83.4822 13.4016H25.7851C24.2186 13.4016 23.2602 15.1208 24.0839 16.4532L123.187 176.765C123.978 178.045 125.847 178.026 126.611 176.729L132.601 166.567C132.978 165.928 132.97 165.133 132.581 164.501L48.9324 28.853C48.1107 27.5205 49.0693 25.8032 50.6348 25.8032H91.5291C92.208 25.8032 92.8406 26.1477 93.209 26.718L155.563 123.247C156.35 124.465 158.132 124.467 158.921 123.25L228.143 16.4897C229.006 15.1591 228.051 13.4016 226.465 13.4016H184.802C184.144 13.4016 183.528 13.7252 183.155 14.267L148.172 65.0462C147.657 65.794 147.71 66.7951 148.302 67.484L155.542 75.9137C156.399 76.911 157.968 76.8248 158.71 75.7397L192.268 26.6741C192.641 26.1291 193.259 25.8032 193.919 25.8032H206.327C207.963 25.8032 208.907 27.6606 207.942 28.9822L156.5 99.4741C155.665 100.619 153.937 100.556 153.187 99.3533L132.258 65.7857C131.833 65.1043 131.857 64.2347 132.318 63.5776L175.697 1.85006C176.072 1.31716 176.682 1 177.333 1H251.316C252.902 1 253.857 2.75909 252.993 4.08962L158.903 148.913C158.118 150.121 156.351 150.128 155.557 148.926L84.0978 40.7559C83.7276 40.1955 83.1008 39.8583 82.4291 39.8583H74.6901C73.1184 39.8583 72.1609 41.5879 72.9951 42.9199L149.073 164.395C149.503 165.081 149.477 165.958 149.007 166.617L125.022 200.277C124.191 201.442 122.441 201.384 121.69 200.165Z"
        fill="url(#paint0_linear_1_3)" stroke="url(#paint0_linear_1_3)" />
    <defs>
        <linearGradient id="paint0_linear_1_3" x1="127" y1="1" x2="127" y2="202.733" gradientUnits="userSpaceOnUse">
            <stop stop-color="#FFAB02" />
            <stop offset="1" stop-color="#FF6605" />
        </linearGradient>
    </defs>
</svg>